<?xml version="1.0" encoding="UTF-8" standalone="no"?>
<svg
   xmlns:dc="http://purl.org/dc/elements/1.1/"
   xmlns:cc="http://creativecommons.org/ns#"
   xmlns:rdf="http://www.w3.org/1999/02/22-rdf-syntax-ns#"
   xmlns:svg="http://www.w3.org/2000/svg"
   xmlns="http://www.w3.org/2000/svg"
   id="svg8"
   version="1.1"
   viewBox="0 0 100 100"
   height="100"
   width="100">
  <defs
     id="defs2">
    <clipPath
       clipPathUnits="userSpaceOnUse"
       id="clipPath4025">
      <path
         d="M 0,595.276 H 841.89 V 0 H 0 Z"
         id="path4023" />
    </clipPath>
  </defs>
  <metadata
     id="metadata5">
    <rdf:RDF>
      <cc:Work
         rdf:about="">
        <dc:format>image/svg+xml</dc:format>
        <dc:type
           rdf:resource="http://purl.org/dc/dcmitype/StillImage" />
        <dc:title></dc:title>
      </cc:Work>
    </rdf:RDF>
  </metadata>
  <g
     transform="translate(0,-270.54166)"
     id="layer1">
    <g
       id="g4013"
       transform="matrix(0.35277777,0,0,-0.35277777,26.881088,228.54887)">
      <path
         d="M -76.198361,-402.49926 H 207.26621 v 283.46457 H -76.198361 Z"
         style="fill:#231f20;fill-opacity:1;fill-rule:nonzero;stroke:none;stroke-width:0.80083525"
         id="path4015" />
      <g
         transform="translate(-212.8683,-716.37913)"
         id="g4019">
        <g
           id="g4021"
           clip-path="url(#clipPath4025)">
          <g
             id="g4099"
             transform="translate(420.00139,443.86981)">
            <path
               d="m 0,0 c -0.512,0.028 -1.073,0.003 -1.542,-0.182 -1.629,-0.645 -3.33,-0.821 -5.046,-0.839 -3.856,-0.038 -7.707,0.077 -11.477,1.011 -2.988,0.739 -6.005,1.387 -8.942,2.295 -5.83,1.802 -11.438,4.188 -16.91,6.883 -2.262,1.114 -4.477,2.322 -6.712,3.488 -0.589,0.307 -1.045,0.664 -0.95,1.455 0.283,2.361 0.544,4.725 0.782,7.091 0.466,4.631 0.996,9.259 1.34,13.901 0.353,4.784 0.527,9.583 0.761,14.376 0.233,4.791 0.538,9.58 0.638,14.374 0.111,5.326 0.026,10.655 0.026,15.983 h 0.088 c 0,2.7 0.013,5.4 -0.004,8.099 -0.018,2.734 -0.013,5.47 -0.113,8.201 -0.188,5.143 -0.422,10.285 -0.679,15.425 -0.188,3.743 -0.432,7.482 -0.671,11.223 -0.087,1.36 -0.165,2.727 -0.361,4.074 -0.705,4.826 -5.709,8.474 -10.564,6.739 -2.845,-1.016 -4.887,-2.831 -5.611,-5.879 -0.368,-1.548 -0.269,-3.118 -0.237,-4.694 0.126,-6.235 0.251,-12.472 0.278,-18.708 0.031,-7.11 -0.034,-14.221 -0.078,-21.332 -0.011,-1.856 -0.108,-3.71 -0.147,-5.566 -0.088,-4.203 -0.119,-8.408 -0.257,-12.61 -0.138,-4.233 -0.382,-8.462 -0.57,-12.694 -0.128,-2.869 -0.213,-5.74 -0.369,-8.607 -0.198,-3.637 -0.434,-7.271 -0.683,-10.904 -0.13,-1.884 -0.322,-3.763 -0.487,-5.644 -0.065,-0.732 -0.145,-1.463 -0.199,-2.195 -0.084,-1.123 -0.333,-1.266 -1.267,-0.698 -0.21,0.128 -0.419,0.257 -0.62,0.397 -6.188,4.292 -12.426,8.515 -18.549,12.897 -7.955,5.694 -15.612,11.783 -23.034,18.15 -6.7,5.749 -13.369,11.547 -19.819,17.572 -5.99,5.595 -11.745,11.446 -17.463,17.322 -3.932,4.041 -7.685,8.263 -11.406,12.501 -4.695,5.347 -9.17,10.878 -13.211,16.747 -1.191,1.729 -2.341,3.492 -3.629,5.146 -1.013,1.301 -2.825,1.357 -4.251,0.31 -1.231,-0.903 -1.636,-2.737 -0.757,-4.039 2.194,-3.249 4.293,-6.579 6.716,-9.652 6.97,-8.845 14.658,-17.062 22.554,-25.08 3.074,-3.12 6.226,-6.169 9.457,-9.124 5.611,-5.131 11.266,-10.216 16.989,-15.222 3.823,-3.344 7.729,-6.601 11.717,-9.747 6.078,-4.796 12.169,-9.583 18.42,-14.148 5.939,-4.337 12.063,-8.424 18.161,-12.538 2.815,-1.9 5.752,-3.621 8.658,-5.385 0.684,-0.416 1.029,-0.912 0.912,-1.711 -0.046,-0.311 -0.061,-0.627 -0.097,-0.94 -0.316,-2.747 -0.621,-5.494 -0.955,-8.239 -0.304,-2.5 -0.62,-4.999 -0.967,-7.494 -0.399,-2.874 -0.832,-5.743 -1.261,-8.613 -0.389,-2.594 -0.743,-5.195 -1.203,-7.777 -0.521,-2.923 -1.098,-5.839 -1.733,-8.74 -0.866,-3.962 -1.745,-7.923 -2.74,-11.853 -0.834,-3.288 -1.851,-6.529 -2.773,-9.795 -1.94,-6.881 -4.187,-13.652 -7.237,-20.132 -2.552,-5.421 -5.599,-10.498 -10.01,-14.669 -4.607,-4.357 -10.022,-7.076 -16.209,-8.328 -0.236,-0.048 -0.531,-0.083 -0.676,-0.238 -0.222,-0.235 -0.483,-0.587 -0.452,-0.858 0.029,-0.244 0.391,-0.538 0.669,-0.646 0.416,-0.161 0.885,-0.208 1.337,-0.253 4.048,-0.396 8.04,-0.169 11.946,1.067 3.625,1.146 7.114,2.592 10.221,4.816 4.913,3.515 9.006,7.876 12.797,12.547 4.665,5.748 8.446,12.027 11.468,18.776 2.221,4.963 3.931,10.109 5.438,15.321 1.302,4.5 2.567,9.016 3.656,13.571 0.909,3.806 1.545,7.678 2.291,11.523 0.598,3.09 1.272,6.168 1.748,9.277 0.601,3.937 1.467,7.841 1.587,11.847 0.031,1.044 0.395,1.201 1.351,0.773 3.387,-1.518 6.753,-3.087 10.173,-4.527 5.841,-2.459 11.736,-4.787 17.953,-6.148 3.969,-0.87 7.964,-1.575 12.049,-1.605 3.334,-0.023 6.654,0.066 9.882,1.036 0.401,0.121 0.846,0.21 1.165,0.453 0.221,0.169 0.379,0.592 0.344,0.873 C 0.617,-0.309 0.236,-0.013 0,0"
               style="fill:#ffffff;fill-opacity:1;fill-rule:nonzero;stroke:none"
               id="path4101" />
          </g>
          <g
             id="g4103"
             transform="translate(233.57069,423.43381)">
            <path
               d="m 0,0 -3.099,-0.271 5.055,57.762 3.098,0.271 z m -29.465,5.722 -1.298,6.824 11.989,35.17 3.735,0.326 z m -13.79,-17.467 -6.539,32.598 2.416,6.439 7.767,-38.719 z m -25.343,14.044 -1.065,7.369 12.007,34.646 3.733,0.327 z m -16.282,-17.686 -8.889,56.542 3.674,0.322 8.889,-56.542 z m 99.621,76.272 -14.879,-1.301 -0.748,-8.554 -5.299,-0.463 0.19,0.543 -14.449,-1.264 -11.177,-32.788 -5.853,30.772 -5.921,-0.518 -0.098,0.518 -15.825,-1.385 -11.052,-31.891 -4.343,30.018 -5.944,-0.52 -0.076,0.52 -15.653,-1.369 9.595,-61.033 5.938,0.519 0.082,-0.519 17.029,1.49 12.441,33.174 6.222,-31.015 5.916,0.517 0.104,-0.517 16.857,1.474 21.02,60.353 -4.412,-50.412 5.393,0.472 -0.041,-0.472 14.879,1.302 5.456,62.349 -5.393,-0.471 z"
               style="fill:#ffffff;fill-opacity:1;fill-rule:nonzero;stroke:none"
               id="path4105" />
          </g>
          <g
             id="g4107"
             transform="translate(322.47209,408.57491)">
            <path
               d="m 0,0 0.314,3.598 -14.144,-1.237 -1.883,-21.528 14.145,1.238 0.314,3.598 -10.6,-0.927 0.47,5.382 8.814,0.771 0.312,3.567 -8.813,-0.771 0.47,5.382 z"
               style="fill:#ffffff;fill-opacity:1;fill-rule:nonzero;stroke:none"
               id="path4109" />
          </g>
          <g
             id="g4111"
             transform="translate(217.78169,396.73071)">
            <path
               d="m 0,0 c -0.237,-2.706 -3.781,-3.016 -3.781,-3.016 l -3.543,-0.31 0.473,5.412 3.543,0.31 c 0,0 3.544,0.31 3.308,-2.396 m -2.992,5.994 -7.088,-0.619 -1.889,-21.589 3.544,0.31 0.785,8.98 3.544,0.31 c 0,0 7.088,0.62 7.639,6.924 0.552,6.304 -6.535,5.684 -6.535,5.684"
               style="fill:#ffffff;fill-opacity:1;fill-rule:nonzero;stroke:none"
               id="path4113" />
          </g>
          <g
             id="g4115"
             transform="translate(242.49949,389.34101)">
            <path
               d="M 0,0 3.229,7.698 5.148,0.451 Z m -6.365,-6.111 3.815,0.334 1.127,2.57 7.451,0.652 0.721,-2.409 3.816,0.334 -6.544,21.401 z"
               style="fill:#ffffff;fill-opacity:1;fill-rule:nonzero;stroke:none"
               id="path4117" />
          </g>
          <g
             id="g4119"
             transform="translate(182.01699,400.16331)">
            <path
               d="m 0,0 c -3.423,-0.299 -6.852,-3.071 -7.209,-7.162 -0.224,-2.552 0.852,-4.35 2.971,-5.202 1.483,-0.573 2.937,-0.445 3.119,-0.429 1.418,0.063 2.984,-0.929 2.825,-2.744 -0.147,-1.691 -1.693,-2.864 -3.328,-3.007 -1.575,-0.138 -2.951,0.627 -2.856,2.405 l -3.543,-0.31 c -0.292,-4.023 2.427,-5.922 6.084,-5.693 3.422,0.299 6.796,2.792 7.157,6.913 0.223,2.552 -0.797,4.629 -2.948,5.479 -1.452,0.575 -2.936,0.445 -3.087,0.432 -1.576,-0.138 -3.006,0.683 -2.85,2.466 0.175,1.999 1.685,3.108 3.35,3.254 1.605,0.14 2.898,-0.54 2.802,-2.319 l 3.514,0.308 C 6.261,-1.955 3.665,0.321 0,0"
               style="fill:#ffffff;fill-opacity:1;fill-rule:nonzero;stroke:none"
               id="path4121" />
          </g>
          <g
             id="g4123"
             transform="translate(282.09809,405.34791)">
            <path
               d="M 0,0 C 1.938,0.17 3.655,-0.474 4.814,-1.654 L 7.519,1.085 C 5.783,2.886 3.253,3.855 0.314,3.598 -5.895,3.055 -10.717,-1.914 -11.285,-8.403 c -0.592,-6.765 3.817,-10.652 9.663,-10.141 2.937,0.257 5.678,1.687 7.756,3.792 l -2.261,2.335 c -1.385,-1.403 -3.242,-2.359 -5.181,-2.529 -3.907,-0.342 -6.776,2.245 -6.373,6.859 0.38,4.336 3.32,7.706 7.681,8.087"
               style="fill:#ffffff;fill-opacity:1;fill-rule:nonzero;stroke:none"
               id="path4125" />
          </g>
          <g
             id="g4127"
             transform="translate(302.75239,448.97631)">
            <path
               d="m 0,0 -2.665,4.674 2.41,27.551 3.099,0.271 z m -5.986,-25.596 -20.637,34.433 0.345,3.942 22.864,-38.15 z m -36.992,-3.236 -3.097,-0.271 5.054,57.762 3.098,0.271 z M 16.506,35.5 11.113,35.028 11.154,35.5 -2.348,34.318 -4.639,8.135 l -13.859,24.302 -5.097,-0.446 -0.254,0.446 -19.265,-1.685 -5.456,-62.35 5.392,0.472 -0.041,-0.472 13.158,1.152 3.101,35.434 19.758,-32.967 5.085,0.445 0.266,-0.445 12.901,1.129 z"
               style="fill:#ffffff;fill-opacity:1;fill-rule:nonzero;stroke:none"
               id="path4129" />
          </g>
          <g
             id="g4131"
             transform="translate(244.33829,501.84491)">
            <path
               d="m 0,0 -1.516,2.356 -0.948,-2.636 -2.71,-0.713 2.215,-1.716 -0.159,-2.798 2.316,1.575 2.612,-1.015 -0.783,2.69 1.774,2.17 z"
               style="fill:#ffffff;fill-opacity:1;fill-rule:nonzero;stroke:none"
               id="path4133" />
          </g>
          <g
             id="g4135"
             transform="translate(232.29529,493.60421)">
            <path
               d="M 0,0 1.339,0.797 2.755,0.146 2.41,1.665 3.467,2.81 1.916,2.953 1.153,4.311 0.538,2.879 -0.989,2.574 0.182,1.547 Z"
               style="fill:#ffffff;fill-opacity:1;fill-rule:nonzero;stroke:none"
               id="path4137" />
          </g>
          <g
             id="g4139"
             transform="translate(228.51899,493.85321)">
            <path
               d="M 0,0 0.501,-0.789 0.822,0.089 1.728,0.321 0.992,0.898 1.051,1.831 0.274,1.31 -0.594,1.654 -0.338,0.755 -0.934,0.035 Z"
               style="fill:#ffffff;fill-opacity:1;fill-rule:nonzero;stroke:none"
               id="path4141" />
          </g>
          <g
             id="g4143"
             transform="translate(253.16939,491.90741)">
            <path
               d="M 0,0 2.956,-3.666 4.067,0.911 8.468,2.59 4.459,5.061 4.222,9.765 0.633,6.715 -3.914,7.943 -2.123,3.587 -4.696,-0.357 Z"
               style="fill:#ffffff;fill-opacity:1;fill-rule:nonzero;stroke:none"
               id="path4145" />
          </g>
          <g
             id="g4147"
             transform="translate(237.88129,492.90211)">
            <path
               d="m 0,0 -1.89,-1.178 2.085,-0.783 0.536,-2.162 1.39,1.741 2.221,-0.159 -1.226,1.86 L 3.953,1.382 1.806,0.791 0.102,2.225 Z"
               style="fill:#ffffff;fill-opacity:1;fill-rule:nonzero;stroke:none"
               id="path4149" />
          </g>
        </g>
      </g>
    </g>
  </g>
</svg>
